# xmcd
#
# Track frame offsets: 
#        150
#        19127
#        36902
#        58720
#        82882
#        103682
#        119665
#        142457
#        168062
#        190172
#
# Disc length: 2858 seconds
#
# Revision: 2
# Processed by: cddbd v1.5.2PL0 Copyright (c) Steve Scherf et al.
# Submitted via: ExactAudioCopy v1.0b6
#
DISCID=890b280a
DTITLE=池田聡 - SILK
DYEAR=1988
DGENRE=JPop
TTITLE0=東京タワーを消せるなら
TTITLE1=幻とダンス
TTITLE2=アドレスのない手紙
TTITLE3=Desprerate
TTITLE4=さよならよりもつらい別れ
TTITLE5=28℃ ～素顔のままで～
TTITLE6=月の舟
TTITLE7=STORY RAIN
TTITLE8=風の風景
TTITLE9=Dear Friend
EXTD=YEAR: 1988
EXTT0=
EXTT1=
EXTT2=
EXTT3=
EXTT4=
EXTT5=
EXTT6=
EXTT7=
EXTT8=
EXTT9=
PLAYORDER=
